<?xml version="1.0" encoding="UTF-8" standalone="no"?>
<!-- Created with Inkscape (http://www.inkscape.org/) -->

<svg
   version="1.1"
   id="svg2"
   width="128"
   height="128"
   viewBox="0 0 128 128"
   sodipodi:docname="icon.svg"
   xml:space="preserve"
   inkscape:version="1.2.2 (b0a8486541, 2022-12-01)"
   xmlns:inkscape="http://www.inkscape.org/namespaces/inkscape"
   xmlns:sodipodi="http://sodipodi.sourceforge.net/DTD/sodipodi-0.dtd"
   xmlns="http://www.w3.org/2000/svg"
   xmlns:svg="http://www.w3.org/2000/svg"><defs
     id="defs6" /><sodipodi:namedview
     id="namedview4"
     pagecolor="#ffffff"
     bordercolor="#000000"
     borderopacity="0.25"
     inkscape:showpageshadow="2"
     inkscape:pageopacity="0.0"
     inkscape:pagecheckerboard="0"
     inkscape:deskcolor="#d1d1d1"
     showgrid="false"
     inkscape:zoom="4.6514368"
     inkscape:cx="50.951998"
     inkscape:cy="81.372706"
     inkscape:window-width="1854"
     inkscape:window-height="1011"
     inkscape:window-x="1346"
     inkscape:window-y="345"
     inkscape:window-maximized="1"
     inkscape:current-layer="g8" /><g
     inkscape:groupmode="layer"
     inkscape:label="Image"
     id="g8"
     transform="translate(-5.7551651,-1.8329163)"><g
       id="g4539"
       transform="translate(-80.000008)"><circle
         style="opacity:1;fill:#ff0126;fill-opacity:1;fill-rule:evenodd;stroke:#000000;stroke-width:8.00037;stroke-dasharray:none;stroke-dashoffset:0;stroke-opacity:1"
         id="path291"
         cx="149.75517"
         cy="65.832916"
         r="59.999817" /><g
         class="st0"
         id="g1435"
         transform="matrix(0.61676949,0,0,0.61676949,74.565004,39.968945)">
	<g
   id="g3803"
   transform="matrix(0.96487037,0,0,0.96487037,4.2807288,1.4745563)"><path
     id="path1523"
     sodipodi:type="inkscape:offset"
     inkscape:radius="8.6107788"
     inkscape:original="M 93.65625 -21.107422 C 91.716553 -20.9911 91.635138 -16.771337 92.0625 -14.462891 C 91.067894 -6.3192733 86.084307 0.49692086 82.767578 7.8144531 C 80.94218 12.87986 77.236192 16.940083 72.605469 19.564453 C 68.342606 23.299946 73.344011 30.067394 76.554688 33.105469 C 81.902856 37.765025 87.316429 31.36358 92.8125 30.605469 C 108.41474 26.461998 124.29799 23.474467 140.21875 20.851562 C 145.05222 21.016265 152.41109 17.136483 155.27539 22.462891 C 157.24193 31.220183 153.94858 40.032306 151.91797 48.480469 C 148.03747 60.391676 143.81163 72.550774 136.26172 82.693359 C 133.0772 86.985388 127.81632 91.447967 122.18945 88.654297 C 117.02762 86.819752 112.7286 82.828087 107.83789 80.849609 C 104.52786 84.11184 112.93414 88.251431 114.08789 91.912109 C 118.30596 95.527611 118.70603 102.94649 123.84375 105.06641 C 130.16249 104.20649 135.81104 100.37589 140.13477 95.820312 C 153.53105 81.361825 158.271 61.768738 163.61914 43.382812 C 165.6198 38.32376 165.28458 32.42794 168.15039 27.761719 C 170.51738 25.543142 175.10991 23.123611 171.29102 19.658203 C 168.13097 15.106991 164.15248 10.895593 159.5 7.9003906 C 155.6532 8.2312192 152.9894 11.675429 149.16016 12.306641 C 135.8472 15.398054 122.16998 16.725486 108.80078 19.599609 L 100.96289 20.880859 C 97.182584 21.025373 91.688363 24.101211 89.349609 20.212891 C 91.723872 13.945933 94.348695 7.6812058 97.787109 1.8964844 C 99.374308 -2.59398 104.55109 -3.1919491 107.04883 -6.3261719 C 106.16893 -12.265799 100.77206 -16.222776 96.265625 -19.632812 C 95.15626 -20.728705 94.302816 -21.146196 93.65625 -21.107422 z "
     d="m 93.140625,-29.703125 c -3.586654,0.215089 -6.739994,2.873911 -7.958984,4.869141 -1.218991,1.99523 -1.509629,3.545137 -1.720703,4.914062 -0.292378,1.896214 -0.249082,3.471746 -0.09766,4.996094 -0.854151,5.1493861 -4.746748,11.0408748 -8.4375,19.1835936 a 8.6116399,8.6116399 0 0 0 -0.259765,0.6347656 c -1.062729,2.9490296 -3.275837,5.4600868 -6.306641,7.1777348 a 8.6116399,8.6116399 0 0 0 -1.429687,1.015625 c -2.662662,2.333256 -4.338815,6.015217 -4.548829,9.167968 -0.210014,3.152752 0.586792,5.700597 1.517579,7.8125 1.861573,4.223807 4.435789,7.112303 6.738281,9.291016 a 8.6116399,8.6116399 0 0 0 0.261719,0.238281 c 2.615802,2.279001 6.223197,3.692685 9.402343,3.794922 3.179146,0.102237 5.683599,-0.754021 7.59961,-1.541016 3.832021,-1.573989 6.210643,-2.733729 6.08789,-2.716796 a 8.6116399,8.6116399 0 0 0 1.035157,-0.207032 c 15.193472,-4.034915 30.803382,-6.978332 46.595702,-9.580078 l -1.69336,0.109375 c 3.34348,0.113931 5.53594,-0.338877 7.25586,-0.726562 -0.2128,4.764555 -1.89901,10.566091 -3.53516,17.314453 -3.82118,11.712904 -7.83472,22.834395 -14.29101,31.507812 a 8.6116399,8.6116399 0 0 0 -0.01,0.0098 c -1.09116,1.470644 -2.57585,2.80387 -3.29101,3.189453 -0.19892,0.107248 -0.10531,0.112327 -0.11328,0.15625 a 8.6116399,8.6116399 0 0 0 -0.86914,-0.367187 c -2.8696,-1.019873 -7.00886,-4.843274 -14.00586,-7.673828 a 8.6116399,8.6116399 0 0 0 -9.27344,1.849609 c -2.773762,2.733706 -3.766087,8.653677 -2.595704,11.759765 1.170384,3.106089 2.699484,4.492944 3.892574,5.730469 1.1931,1.237526 2.22915,2.186082 2.80274,2.794922 0.57359,0.60884 0.45526,0.998285 -0.0176,-0.501953 a 8.6116399,8.6116399 0 0 0 2.60938,3.949219 c 0.002,0.0014 0.98187,1.506919 2.41601,4.412111 1.43414,2.90519 3.88827,7.78328 9.6582,10.16406 a 8.6116399,8.6116399 0 0 0 4.44727,0.57227 c 9.02491,-1.22821 16.13264,-6.32615 21.375,-11.84961 a 8.6116399,8.6116399 0 0 0 0.0703,-0.0762 c 15.34391,-16.560554 20.16454,-37.764014 25.43555,-55.884771 l -0.25977,0.761719 c 2.70759,-6.846663 2.87565,-11.375098 3.6543,-13.427734 0.929,-0.69724 2.15993,-1.75179 3.69727,-3.84375 1.22819,-1.671296 2.65845,-4.565051 2.33984,-7.998047 -0.31862,-3.432996 -2.2802,-6.219436 -4.24024,-7.998047 l 1.28516,1.466797 C 174.69146,9.4597659 170.02293,4.4345292 164.16016,0.66015625 a 8.6116399,8.6116399 0 0 0 -5.39844,-1.33984375 c -4.29597,0.36945735 -7.17708,2.2655198 -8.88867,3.2988281 -1.71159,1.0333083 -2.3624,1.2324703 -2.11328,1.1914063 a 8.6116399,8.6116399 0 0 0 -0.54688,0.109375 c -12.57625,2.92034 -26.20628,4.248465 -40.22266,7.2617191 l 0.42188,-0.08008 -5.11914,0.835938 c 0.932,-1.922639 1.84435,-3.8705304 2.89648,-5.640625 a 8.6116399,8.6116399 0 0 0 0.55078,-1.1757812 c 0.0397,-0.0059 0.20414,-0.1160851 0.82618,-0.4960938 1.33228,-0.8139081 4.32727,-1.9581416 7.21679,-5.58398438 a 8.6116399,8.6116399 0 0 0 1.78321,-6.62890622 C 114.01981,-18.027977 105.88543,-23.151968 101.46094,-26.5 l 0.85547,0.742188 c -1.9023,-1.879191 -4.39048,-4.232284 -9.175785,-3.945313 z" /><path
     id="path1433"
     style="fill:#ffffff;fill-opacity:1"
     sodipodi:type="inkscape:offset"
     inkscape:radius="-0.76748741"
     inkscape:original="M 93.490234 -23.869141 C 92.008624 -23.78029 90.745438 -22.732305 90.167969 -21.787109 C 89.590499 -20.841914 89.375208 -19.930005 89.236328 -19.029297 C 88.958568 -17.227881 89.067456 -15.440866 89.341797 -13.958984 L 89.316406 -14.798828 C 88.434116 -7.5748262 83.728295 -1.0064207 80.248047 6.671875 A 2.7671987 2.7671987 0 0 0 80.164062 6.8769531 C 78.583736 11.262299 75.358805 14.825192 71.242188 17.158203 A 2.7671987 2.7671987 0 0 0 70.78125 17.484375 C 69.202384 18.867915 68.332998 20.812148 68.210938 22.644531 C 68.088876 24.476915 68.567346 26.172849 69.246094 27.712891 C 70.60359 30.792974 72.822987 33.384222 74.652344 35.115234 A 2.7671987 2.7671987 0 0 0 74.736328 35.191406 C 76.484277 36.714296 78.555535 37.490517 80.490234 37.552734 C 82.424934 37.614952 84.144782 37.077723 85.679688 36.447266 C 88.749498 35.186352 91.365848 33.597515 93.191406 33.345703 A 2.7671987 2.7671987 0 0 0 93.523438 33.279297 C 108.99433 29.170708 124.78848 26.198137 140.66797 23.582031 L 140.125 23.617188 C 143.32854 23.72635 146.36391 22.717466 148.76367 22.474609 C 149.96355 22.353181 150.92719 22.415964 151.52148 22.613281 C 152.01733 22.777913 152.29348 23.084774 152.61914 23.582031 C 154.10969 31.125485 151.30182 39.253256 149.26172 47.699219 C 145.39972 59.549633 141.24025 71.372151 134.04297 81.041016 A 2.7671987 2.7671987 0 0 0 134.03906 81.044922 C 132.60782 82.973918 130.69803 84.886368 128.82812 85.894531 C 126.95822 86.902695 125.40012 87.158924 123.41992 86.175781 A 2.7671987 2.7671987 0 0 0 123.11523 86.046875 C 118.68997 84.474111 114.44253 80.537434 108.875 78.285156 A 2.7671987 2.7671987 0 0 0 105.89648 78.878906 C 104.44358 80.310827 104.05875 82.804389 104.66602 84.416016 C 105.27328 86.027643 106.29181 87.109864 107.29688 88.152344 C 108.30192 89.194824 109.35036 90.153112 110.14453 90.996094 C 110.93871 91.839075 111.4054 92.60512 111.44922 92.744141 A 2.7671987 2.7671987 0 0 0 112.28711 94.013672 C 113.71895 95.240972 114.81824 97.596566 116.14062 100.27539 C 117.46303 102.95422 119.19159 106.14062 122.78906 107.625 A 2.7671987 2.7671987 0 0 0 124.2168 107.80859 C 131.40512 106.83033 137.52366 102.5912 142.14258 97.724609 A 2.7671987 2.7671987 0 0 0 142.16406 97.701172 C 156.18618 82.567224 160.95204 62.456969 166.27539 44.15625 L 166.19141 44.400391 C 168.44694 38.696835 168.28051 33.202249 170.38477 29.501953 C 171.35286 28.680631 172.95358 27.607108 174.26953 25.816406 C 174.99221 24.833012 175.64955 23.429692 175.5 21.818359 C 175.35045 20.207027 174.42815 18.768865 173.15039 17.609375 L 173.56445 18.080078 C 170.23995 13.292022 166.03943 8.8197939 160.99805 5.5742188 A 2.7671987 2.7671987 0 0 0 159.26367 5.1445312 C 156.57789 5.3755112 154.54571 6.6250298 152.89258 7.6230469 C 151.23945 8.6210639 149.93028 9.3751755 148.71094 9.5761719 A 2.7671987 2.7671987 0 0 0 148.53516 9.6113281 C 135.45893 12.64777 121.79591 13.975701 108.21875 16.894531 L 108.35352 16.869141 L 100.51562 18.150391 L 100.85742 18.115234 C 98.269611 18.214162 95.967918 19.073814 94.230469 19.318359 C 93.516285 19.41888 93.069039 19.372908 92.705078 19.316406 C 94.861284 13.765411 97.19775 8.3042938 100.16602 3.3105469 A 2.7671987 2.7671987 0 0 0 100.39648 2.8183594 C 100.88796 1.4278991 101.86656 0.64849099 103.51953 -0.36132812 C 105.17251 -1.3711473 107.43683 -2.3729141 109.21289 -4.6015625 A 2.7671987 2.7671987 0 0 0 109.78516 -6.7324219 C 108.69102 -14.118192 102.41565 -18.449732 97.935547 -21.839844 L 98.210938 -21.601562 C 96.846779 -22.949154 95.466711 -23.987668 93.490234 -23.869141 z "
     d="m 93.537109,-23.103516 c -1.147662,0.06883 -2.265391,0.981137 -2.714843,1.716797 -0.507218,0.830207 -0.69556,1.614858 -0.828125,2.47461 -0.226962,1.471961 -0.149812,2.918219 0.03711,4.205078 l 0.04687,0.002 c -0.0056,0.0461 -0.02728,0.08873 -0.0332,0.134766 0.02316,0.150213 0.02407,0.326435 0.05078,0.470703 l -0.167969,0.01758 c -1.098289,7.2341119 -5.637408,13.69468582 -8.980468,21.0703122 a 0.76756416,0.76756416 0 0 1 -0.002,0.00195 c -0.0222,0.048563 -0.0423,0.098254 -0.06055,0.1484375 -1.648598,4.5727721 -5.005802,8.2744361 -9.263672,10.6875001 a 0.76756416,0.76756416 0 0 1 -0.002,0 c -0.118676,0.06695 -0.229417,0.146684 -0.332032,0.236328 -1.415853,1.240694 -2.202157,3.005658 -2.310547,4.632812 -0.111133,1.668329 0.324088,3.237418 0.972657,4.708985 1.296833,2.942442 3.453934,5.471145 5.230469,7.152344 0.01985,0.01876 0.03994,0.03871 0.06055,0.05664 1.618926,1.410479 3.528068,2.115684 5.275391,2.171875 1.778238,0.05719 3.38278,-0.434753 4.873047,-1.046875 3.00198,-1.233053 5.537139,-2.854382 7.697266,-3.152343 a 0.76756416,0.76756416 0 0 1 0.002,0 c 0.08023,-0.01099 0.159976,-0.02819 0.238281,-0.04883 15.379258,-4.084254 31.065748,-7.040284 46.824218,-9.642578 v -0.04492 c 3.02619,0.103119 5.98805,-0.880903 8.53516,-1.138671 1.2672,-0.128241 2.29457,-0.08633 3.07812,0.173828 0.68565,0.227649 1.14273,0.734796 1.49805,1.277343 a 0.76756416,0.76756416 0 0 1 0.10937,0.271485 c 1.54641,7.826123 -1.33453,16.046345 -3.36328,24.445312 a 0.76756416,0.76756416 0 0 1 -0.0156,0.05859 C 146.12648,59.79929 141.94984,71.704372 134.6582,81.5 a 0.76756416,0.76756416 0 0 1 -0.002,0.002 l -0.01,0.01172 c -0.0113,0.01516 -0.0277,0.02782 -0.0391,0.04297 a 0.76756416,0.76756416 0 0 1 -0.0234,0.02734 c -9.4e-4,9.4e-4 -0.001,0.003 -0.002,0.0039 -1.47282,1.965957 -3.38619,3.901729 -5.39062,4.982421 -1.97831,1.066612 -3.94064,1.369992 -6.11133,0.292969 h -0.002 c -0.0709,-0.03508 -0.14414,-0.06732 -0.21874,-0.09375 a 0.76756416,0.76756416 0 0 1 -0.002,0 c -4.66003,-1.656202 -8.86442,-5.586863 -14.26953,-7.773437 -0.71798,-0.290214 -1.60053,-0.113653 -2.15234,0.429687 -1.18389,1.166795 -1.52823,3.451673 -1.05078,4.71875 0.54739,1.452739 1.46416,2.436681 2.46484,3.47461 0.98305,1.019667 2.02723,1.974492 2.85351,2.851562 0.42521,0.451333 0.76061,0.878163 1.00196,1.220703 0.12067,0.171271 0.21825,0.321948 0.29297,0.447266 0.0747,0.125318 0.11597,0.160458 0.18359,0.375 0.11145,0.354061 0.32373,0.6763 0.60547,0.917969 1.65289,1.416774 2.72295,3.833831 4.04101,6.503906 1.31184,2.657403 2.93429,5.610733 6.25391,6.980473 0.32431,0.13369 0.68367,0.1801 1.03125,0.13281 6.95244,-0.94616 12.93351,-5.07098 17.47266,-9.853518 0.003,-0.0033 0.007,-0.0064 0.01,-0.0098 a 0.76756416,0.76756416 0 0 1 0.006,-0.0059 c 13.80602,-14.900715 18.5744,-34.779698 23.88477,-53.058594 l -0.008,-0.0039 c 2.18879,-5.534797 1.96403,-10.99493 4.23828,-14.994141 a 0.76756416,0.76756416 0 0 1 0.17187,-0.207031 c 1.03477,-0.87789 2.53496,-1.885355 3.76172,-3.554688 0.64787,-0.881594 1.21257,-2.108213 1.08594,-3.472656 -0.1266,-1.364053 -0.92158,-2.640173 -2.10156,-3.710938 l 0.0234,-0.02344 c -3.23722,-4.582096 -7.27089,-8.8419705 -12.07617,-11.935547 -0.36859,-0.2370926 -0.8153,-0.3461894 -1.25195,-0.3085938 -2.48329,0.2135652 -4.38349,1.3684666 -6.04102,2.3691407 -1.66017,1.002267 -3.0168,1.8179241 -4.45312,2.0546871 -0.042,0.007 -0.0836,0.0157 -0.125,0.02539 a 0.76756416,0.76756416 0 0 1 -0.002,0 c -13.11193,3.044733 -26.74316,4.375207 -40.23242,7.267578 -0.0319,0.0068 -0.0638,0.01072 -0.0957,0.01758 v -0.002 l -7.49609,1.22461 0.002,0.01562 c -2.435572,0.09311 -4.6582,0.929208 -6.548829,1.195313 -0.789956,0.111186 -1.354217,0.05754 -1.75,-0.0039 A 0.76756416,0.76756416 0 0 1 91.990234,19.039062 C 94.15268,13.472004 96.502402,7.9709144 99.505859,2.9179688 99.572855,2.805252 99.628201,2.6861371 99.671875,2.5625 a 0.76756416,0.76756416 0 0 1 0.002,0 c 0.568132,-1.60730525 1.757412,-2.54696906 3.445312,-3.578125 1.72637,-1.0546531 3.84637,-1.9967798 5.49414,-4.0644531 0.34052,-0.4276632 0.49255,-0.9983459 0.41211,-1.5390625 C 108.0026,-13.523304 102.1637,-17.685216 97.683594,-21.066406 l -0.01172,0.01172 c -1.320297,-1.304262 -2.446999,-2.150041 -4.134766,-2.048828 z" /></g>
</g><path
         style="color:#000000;fill:#cc0021;fill-rule:evenodd;-inkscape-stroke:none"
         d="m 184.67969,21.824219 c 13.9877,22.828339 13.97664,29.445148 14.23242,44.007812 0,27.190592 -21.96566,49.158199 -49.15625,49.158199 -21.53443,0 -39.78321,-13.81421 -46.45313,-33.033199 -3.29334,-9.082076 -9.170723,-8.042766 -6.634761,2.302735 7.630761,21.987614 28.547541,37.753904 53.087891,37.753904 30.98603,0 56.17969,-25.195598 56.17969,-56.181639 0,-17.805588 -8.30646,-33.718958 -21.25586,-44.007812 z"
         id="circle1526"
         sodipodi:nodetypes="ccsccssc" /><circle
         style="opacity:1;fill:#ffffff;fill-opacity:1;fill-rule:evenodd;stroke:none;stroke-width:11.5046;stroke-dasharray:none;stroke-dashoffset:0;stroke-opacity:1"
         id="path3310"
         cx="105.42741"
         cy="48.754295"
         r="3.6557951" /><path
         style="opacity:1;fill:#ffffff;fill-opacity:1;fill-rule:evenodd;stroke:none;stroke-width:1.95904;stroke-dasharray:none;stroke-dashoffset:0;stroke-opacity:1"
         d="m 104.49299,42.174757 c -2.38557,-0.963896 -4.04222,-4.294375 -2.27228,-6.507624 4.22602,-7.34564 10.58369,-13.305258 17.6541,-17.882864 8.46261,-5.224665 18.43999,-7.9167189 28.37669,-7.7860819 2.47548,-1.105992 2.95207,2.2130189 1.69184,3.6496789 -1.2749,2.581595 -4.32821,3.693815 -7.06723,3.447001 -3.62473,0.08805 -7.70497,-0.517658 -10.82015,1.762506 -1.71611,1.726343 -3.49749,4.832753 -6.37392,3.51022 -2.26047,-0.847534 -4.95102,1.303242 -3.05247,3.365424 0.40384,2.837698 -2.7507,3.596714 -4.87455,3.272853 -3.05415,0.645677 -5.54518,3.627223 -5.19106,6.80943 -0.11406,2.832792 -1.61327,6.179749 -4.72785,6.63633 -1.1136,0.204672 -2.27411,0.08358 -3.34312,-0.276873 z"
         id="path3799" /></g></g><style
     type="text/css"
     id="style1431">
	.st0{enable-background:new    ;}
</style></svg>
